<?xml version="1.0" encoding="UTF-8" standalone="no"?>
<!-- Created with Inkscape (http://www.inkscape.org/) -->

<svg
   width="48"
   height="48"
   viewBox="0 0 12.7 12.7"
   version="1.1"
   id="svg1"
   inkscape:export-filename="favicon.ico"
   inkscape:export-xdpi="96"
   inkscape:export-ydpi="96"
   inkscape:version="1.4.2 (ebf0e94, 2025-05-08)"
   sodipodi:docname="logo.svg"
   xmlns:inkscape="http://www.inkscape.org/namespaces/inkscape"
   xmlns:sodipodi="http://sodipodi.sourceforge.net/DTD/sodipodi-0.dtd"
   xmlns="http://www.w3.org/2000/svg"
   xmlns:svg="http://www.w3.org/2000/svg">
  <sodipodi:namedview
     id="namedview1"
     pagecolor="#ffffff"
     bordercolor="#000000"
     borderopacity="0.25"
     inkscape:showpageshadow="2"
     inkscape:pageopacity="0.0"
     inkscape:pagecheckerboard="true"
     inkscape:deskcolor="#d1d1d1"
     inkscape:document-units="px"
     inkscape:zoom="10.401374"
     inkscape:cx="22.833522"
     inkscape:cy="18.651382"
     inkscape:window-width="1366"
     inkscape:window-height="717"
     inkscape:window-x="0"
     inkscape:window-y="27"
     inkscape:window-maximized="1"
     inkscape:current-layer="layer1" />
  <defs
     id="defs1" />
  <g
     inkscape:label="Layer 1"
     inkscape:groupmode="layer"
     id="layer1">
    <path
       id="path2"
       style="fill:#ffffff;stroke-width:0.264583;stroke-linejoin:round"
       d="M 6.35 1.0583333 A 5.2916665 5.2916665 0 0 0 1.0583333 6.35 A 5.2916665 5.2916665 0 0 0 6.35 11.641667 A 5.2916665 5.2916665 0 0 0 11.641667 6.35 A 5.2916665 5.2916665 0 0 0 6.35 1.0583333 z M 6.35 1.4655436 A 4.8844943 4.8844943 0 0 1 11.234456 6.35 A 4.8844943 4.8844943 0 0 1 6.35 11.234456 A 4.8844943 4.8844943 0 0 1 1.4655436 6.35 A 4.8844943 4.8844943 0 0 1 6.35 1.4655436 z " />
    <rect
       style="fill:#ffffff;stroke-width:0.264583;stroke-linejoin:round"
       id="rect3"
       width="1.5771154"
       height="6.5373979"
       x="3.2051053"
       y="3.1542308" />
    <rect
       style="fill:#ffffff;stroke-width:0.268018;stroke-linejoin:round"
       id="rect4"
       width="6.4102106"
       height="1.5780337"
       x="3.2051053"
       y="3.1542306" />
    <text
       xml:space="preserve"
       style="font-style:normal;font-variant:normal;font-weight:normal;font-stretch:normal;font-size:3.05446px;line-height:0.6;font-family:Astonpoliz;-inkscape-font-specification:Astonpoliz;text-align:center;letter-spacing:0px;writing-mode:lr-tb;direction:ltr;text-anchor:middle;fill:#ffffff;stroke-width:0.0954515;stroke-linejoin:round"
       x="0.33421275"
       y="11.104828"
       id="text7"
       transform="rotate(-44.722568)"><tspan
         sodipodi:role="line"
         id="tspan7"
         style="font-style:normal;font-variant:normal;font-weight:bold;font-stretch:normal;font-family:FreeMono;-inkscape-font-specification:'FreeMono Bold';stroke-width:0.0954515"
         x="0.33421293"
         y="11.104828">NsA</tspan></text>
  </g>
</svg>
